<?xml version="1.0" encoding="utf-8"?>
<!-- Generator: Adobe Illustrator 19.0.0, SVG Export Plug-In . SVG Version: 6.00 Build 0)  -->
<svg version="1.1" xmlns="http://www.w3.org/2000/svg" xmlns:xlink="http://www.w3.org/1999/xlink" x="0px" y="0px"
	 viewBox="0 0 100 100" style="enable-background:new 0 0 100 100;" xml:space="preserve">
<style type="text/css">
	.st0{fill:#11405A;}
	.st1{fill:#2BAE4A;}
	.st2{fill:#F4F4F4;}
</style>
<g id="Layer_1_copy">
</g>
<g id="Layer_1">
	<g id="XMLID_16_">
		<g id="XMLID_19_">
			<g id="XMLID_44_">
				<path id="XMLID_14_" class="st0" d="M72.6,38.2h-1.8V24.2c0-5.5-4.5-9.9-9.9-9.9s-9.9,4.5-9.9,9.9v14.1h-1.8V24.2
					c0-6.5,5.3-11.8,11.8-11.8s11.8,5.3,11.8,11.8V38.2z"/>
			</g>
			<g id="XMLID_42_">
				<path id="XMLID_13_" class="st0" d="M85.3,32.4l-41.5-0.2c-1.6,0-3,0.8-3.8,2v52.5c6-0.3,12-1.4,17.8-3.3
					c3.9-1.3,7.8-2.9,11.4-4.8c3-1.6,6.6-3.6,7.7-6.7l11.8-35.3C89.4,34.5,87.8,32.4,85.3,32.4z"/>
			</g>
			<g id="XMLID_40_">
				<path id="XMLID_12_" class="st1" d="M33.5,31.6c0,1,0,2.1,0,3.1c0,2.6,0.2,16.1,0.2,20.3c0,5.1-0.1,10.4-1.7,15.4
					c-0.7,2.1-1.9,4.1-3.7,5.3c-2,1.3-5,1-7.2,0.5c-1.8-0.4-3.6-1-5.2-1.8c-2.3-1.3-4.4-3-5.8-5.2c-0.5-0.8-0.9-1.5-1.3-2.4
					c2,12.7,13,20.5,25.4,20.8c7.7,0.2,15.4-1,22.6-3.7c3.7-1.4,7.3-3.1,10.6-5.3c2.7-1.7,6.1-3.9,6.7-7.3l7.6-38.2
					c0.5-2.4-1.4-4.7-3.8-4.7H37.3C35.4,28.4,33.8,29.7,33.5,31.6z"/>
			</g>
			<g id="XMLID_34_">
				<g id="XMLID_35_">
					<path id="XMLID_11_" class="st0" d="M53.6,77.7l-0.5-0.9l-3.3-6.7c-0.7,0.4-1.7,0.9-2.8,1.5c-1.6,0.8-3.5,1.5-5.6,2.2
						c-4.1,1.3-8.1,1.9-11.9,1.9c-3,0-5.9-0.4-8.7-1.2c-7.9-2.3-14.9-8.2-17.9-15.1l2.8-1.2c0.1,0.1,0.4,0.4,0.6,0.6
						c0.1,0.1,0.2,0.2,0.4,0.3c1.1,1.1,2.3,2,3.7,2.8c3.2,1.9,7.3,3,11.8,3c0.9,0,1.8,0,2.7-0.1c4.1-0.4,8.8-2,12.2-4.3
						c0.1-0.1,0.3-0.2,0.4-0.3l-9.9-1l-0.2-1.2c-0.1-0.7,0.3-1.4,0.9-1.7l32-14.1l0.3,0h0.7l0.5,0.6c0.3,0.4,0.4,0.8,0.3,1.3
						l-6.4,33.4l-1.3,0H53.6z"/>
					<path id="XMLID_36_" class="st2" d="M60.7,44C60.7,44,60.7,44,60.7,44l-6.1,32.2c0,0,0,0,0,0c0,0,0,0,0,0l-4.2-8.4
						c0.1,0.3-3.7,2.3-4,2.5c-1.7,0.9-3.6,1.6-5.4,2.1c-3.7,1.2-7.6,1.9-11.5,1.9c0,0,0,0-0.1,0c-2.8,0-5.5-0.4-8.2-1.1
						c-7.1-2-13.9-7.4-16.9-14.2c0.2,0.5,0.9,1,1.3,1.4c1.2,1.2,2.5,2.2,4,3c3.7,2.2,8.2,3.2,12.6,3.2c1,0,1.9,0,2.9-0.1
						c4.3-0.4,9.2-2.1,12.9-4.5c2-1.3,2.8-2.3,3.1-2.7L29,58c-0.1,0-0.1-0.1,0-0.1L60.7,44C60.7,44,60.7,44,60.7,44 M60.7,40.9H60
						l-0.6,0.3L27.8,55.1c-1.3,0.6-2,1.9-1.8,3.3c0.2,1.4,1.3,2.5,2.7,2.6l3.7,0.4c-2.5,1-5.2,1.8-7.7,2c-0.9,0.1-1.7,0.1-2.6,0.1
						c-4.2,0-8-0.9-11-2.7c-1.3-0.8-2.4-1.6-3.4-2.6c-0.1-0.1-0.3-0.2-0.4-0.4c-0.1-0.1-0.3-0.3-0.4-0.4c0,0,0.1,0.1,0.2,0.3
						l-5.6,2.4c3.2,7.3,10.6,13.6,18.8,15.9c2.9,0.8,5.9,1.2,9,1.3l0.1,0c4,0,8.2-0.7,12.4-2c2.2-0.7,4.2-1.5,5.9-2.3
						c0.2-0.1,0.8-0.4,1.4-0.8l2.6,5.3c0.5,1.1,1.6,1.7,2.8,1.7c1.5,0,2.8-1.1,3-2.5l6.1-32.1c0.2-0.9-0.1-1.8-0.7-2.6
						C62.5,41.3,61.6,40.9,60.7,40.9L60.7,40.9z"/>
				</g>
			</g>
			<g id="XMLID_22_">
				<g id="XMLID_23_">
					<g id="XMLID_29_">
						<circle id="XMLID_8_" class="st0" cx="44.7" cy="39.1" r="2.3"/>
						<path id="XMLID_30_" class="st0" d="M44.7,41.8c-1.5,0-2.8-1.2-2.8-2.8c0-1.5,1.2-2.8,2.8-2.8c1.5,0,2.8,1.2,2.8,2.8
							C47.5,40.6,46.2,41.8,44.7,41.8z M44.7,37.2c-1,0-1.9,0.8-1.9,1.9c0,1,0.8,1.9,1.9,1.9c1,0,1.9-0.8,1.9-1.9
							C46.6,38,45.7,37.2,44.7,37.2z"/>
					</g>
					<g id="XMLID_24_">
						<circle id="XMLID_5_" class="st0" cx="66.4" cy="39.1" r="2.3"/>
						<path id="XMLID_25_" class="st0" d="M66.4,41.8c-1.5,0-2.8-1.2-2.8-2.8c0-1.5,1.2-2.8,2.8-2.8s2.8,1.2,2.8,2.8
							C69.2,40.6,67.9,41.8,66.4,41.8z M66.4,37.2c-1,0-1.9,0.8-1.9,1.9c0,1,0.8,1.9,1.9,1.9s1.9-0.8,1.9-1.9
							C68.3,38,67.4,37.2,66.4,37.2z"/>
					</g>
				</g>
			</g>
			<g id="XMLID_20_">
				<path id="XMLID_2_" class="st0" d="M67.3,39.1h-1.8V25c0-5.5-4.5-9.9-9.9-9.9c-5.5,0-9.9,4.5-9.9,9.9v14.1h-1.8V25
					c0-6.5,5.3-11.8,11.8-11.8c6.5,0,11.8,5.3,11.8,11.8V39.1z"/>
			</g>
		</g>
		<g id="XMLID_17_">
			<path id="XMLID_1_" class="st0" d="M81.2,23.3c0,0,11,2.1,11.4,14.8c0.4,12.7-8.1,21.7-8.1,21.7s13.3-10.1,12.7-25.7
				C96.6,18.5,81.2,23.3,81.2,23.3z"/>
		</g>
	</g>
</g>
</svg>
